# xmcd
#
# Track frame offsets: 
#        150
#        62088
#        94017
#        119024
#        167651
#        190553
#        204984
#        228420
#
# Disc length: 4096 seconds
#
# Revision: 0
# Processed by: cddbd v1.5.2PL0 Copyright (c) Steve Scherf et al.
# Submitted via: ExactAudioCopy v0.95b4
#
DISCID=640ffe08
DTITLE=Buddy Guy - Live at Buddy Goy's Legends January 2004 Disc 2
DYEAR=1900
DGENRE=Blues
TTITLE0=It Feels Like Rain
TTITLE1=When You Were Slippin' Out Someone Was Slippin' In
TTITLE2=I've Got a Problem
TTITLE3=Hoochie Coochie Man
TTITLE4=Ain't No Tellin'
TTITLE5=I Done Got Old
TTITLE6=Ain't It Peculiar
TTITLE7=I'm Goin' Down
EXTD=
EXTT0=
EXTT1=
EXTT2=
EXTT3=
EXTT4=
EXTT5=
EXTT6=
EXTT7=
PLAYORDER=
